<svg xmlns="http://www.w3.org/2000/svg" viewBox="0 0 60 60"><defs><style>.cls-2{fill:#3d3d63}</style></defs><g id="图层_2" data-name="图层 2"><g id="Icons"><g id="Interaction"><path fill="none" d="M0 0h60v60H0z"/><path class="cls-2" d="M42.6 16.52a1 1 0 001-1v-1a16.77 16.77 0 01-1.71 21.76 1 1 0 000 1.42 1 1 0 001.42 0 18.79 18.79 0 001.49-24.93h1.55a1 1 0 000-2H42.6a1 1 0 00-1 1v3.75a1 1 0 001 1zM18.41 37v-3.78a1 1 0 00-2 0v1a16.77 16.77 0 011.7-21.77 1 1 0 00-1.42-1.42A18.79 18.79 0 0015.2 36h-1.54a1 1 0 100 2h3.75a1 1 0 001-1z"/><path class="cls-2" d="M43 40.54a3.55 3.55 0 00-1.59.38 3.6 3.6 0 00-3.59-3.48 3.54 3.54 0 00-1.59.37v-2.26a12.78 12.78 0 10-12.37 0v8.84a3.67 3.67 0 00-4.44-1.33 3.56 3.56 0 00-1.62 5l2.89 5a2.25 2.25 0 001.95 1.13h21.7a2.25 2.25 0 002.2-2.19v-7.87A3.59 3.59 0 0043 40.54zM19.22 24.37a10.78 10.78 0 1117 8.83v-8.72a3.59 3.59 0 10-7.18 0v1.94a3.55 3.55 0 00-1.6-.37 3.59 3.59 0 00-3.59 3.59v3.55a10.69 10.69 0 01-4.63-8.82zM44.54 52a.25.25 0 01-.25.25h-21.7a.23.23 0 01-.21-.13l-2.9-5a1.54 1.54 0 01-.13-1.26 1.51 1.51 0 01.84-.94 1.47 1.47 0 01.58-.12 1.73 1.73 0 011.47.89l1.7 2.94a1 1 0 001.87-.5V29.64a1.6 1.6 0 013.19 0v15.71a1 1 0 102 0V24.48a1.59 1.59 0 113.18 0V41a1 1 0 002 0 1.59 1.59 0 113.18 0v3.1a1 1 0 102 0 1.59 1.59 0 113.18 0z"/></g></g></g></svg>