<svg xmlns="http://www.w3.org/2000/svg" viewBox="0 0 60 60"><defs><style>.cls-2{fill:#3d3d63}</style></defs><g id="图层_2" data-name="图层 2"><g id="Icons"><g id="Launch"><path fill="none" d="M0 0h60v60H0z"/><path class="cls-2" d="M41.4 21.59a3.81 3.81 0 10-3.81-3.81 3.82 3.82 0 003.81 3.81zm0-5.62a1.81 1.81 0 11-1.81 1.81A1.81 1.81 0 0141.4 16z"/><path class="cls-2" d="M56 44.62h-2.42V18.93a2.37 2.37 0 00-2.37-2.36h-1.74a19.66 19.66 0 00.42-4.68 2.75 2.75 0 00-2.61-2.61 20 20 0 00-15 6.19L28.06 14a1 1 0 00-1.13.37l-1.55 2.16H8.79a2.37 2.37 0 00-2.37 2.36v25.73H4a1 1 0 00-1 1v1.93a3.17 3.17 0 003.17 3.17h47.66A3.17 3.17 0 0057 47.55v-1.93a1 1 0 00-1-1zm-4.79-26a.37.37 0 01.37.36v25.64h-2.11V22.36a1 1 0 00-1-1h-.66a19.86 19.86 0 001.13-2.79zm-19.06 26v-.28a6.35 6.35 0 00-2.73-5.22l3.88-6.92c.24 0 .46.12.7.16a1 1 0 00.55-.08l.5-.22-.22 5.29a1 1 0 00.53.92 1 1 0 001-.06l8.34-6a1 1 0 00.37-1.14l-1.43-4.19a20.14 20.14 0 003-3.56h.8v21.3zm-19.62 0V29.41a3.93 3.93 0 012.93 3.79 4.45 4.45 0 01-.08.81 1 1 0 00.43 1A2.52 2.52 0 0117 37.17a2.48 2.48 0 01-.34 1.23c-.11.08-.22.14-.32.22a1 1 0 00-.16 1.38 1 1 0 00.77.36 1 1 0 00.64-.24c.12-.09.24-.18.37-.26a2.46 2.46 0 012.92.38 6.3 6.3 0 00-.78 1.15 1 1 0 00.43 1.35 1.07 1.07 0 00.46.11 1 1 0 00.89-.54 4.33 4.33 0 011-1.27 4.38 4.38 0 017.3 3.27v.28zm8.27-21.26a.87.87 0 00.11.44 1 1 0 00.88.52l5.29-.21-.22.5a.94.94 0 00-.08.55 5.32 5.32 0 00.16.69l-9.81 5.51a6 6 0 00-4.64-4v-4zm5 14.59a6.41 6.41 0 00-3.39 1 4.51 4.51 0 00-3.45-1.35 2.88 2.88 0 000-.41 4.5 4.5 0 00-1.53-3.39v-.28l10.19-5.73a7.58 7.58 0 00.55.91l-4.43 3.1a1 1 0 00.57 1.82 1 1 0 00.58-.18l4.6-3.22a8.78 8.78 0 001.89 1.34l-3.75 6.69a6.41 6.41 0 00-1.85-.25zm16.29-9.62l.91 2.73-6.06 4.33.17-4.24 1-.43a20.34 20.34 0 003.96-2.39zm5.16-17a.7.7 0 01.66.67 17.93 17.93 0 01-10.67 16.89L34 30.33a6.58 6.58 0 01-5.18-5.18l1.43-3.21a18 18 0 0116.98-10.66zm-19.13 4.84l2.73.94a20.34 20.34 0 00-2.39 4l-.43.95-4.24.17zm-19.7 2.76a.37.37 0 01.37-.36H24l-2 2.79H11.53a1 1 0 00-1 1v22.26H8.42zM5 47.55v-.93h15.79v1a3 3 0 00.21 1.1H6.17A1.17 1.17 0 015 47.55zm18.87 1.17a1.08 1.08 0 01-1.08-1.08v-1h14.42v1a1.08 1.08 0 01-1.08 1.08zM55 47.55a1.17 1.17 0 01-1.17 1.17H39a3 3 0 00.21-1.08v-1H55z"/><path class="cls-2" d="M28.06 34a1 1 0 00-1.41 0L25 35.53a1 1 0 00-.05 1.41 1 1 0 00.73.32 1 1 0 00.69-.28L28 35.39a1 1 0 00.06-1.39z"/></g></g></g></svg>