<svg xmlns="http://www.w3.org/2000/svg" viewBox="0 0 60 60"><defs><style>.cls-1{fill:none}.cls-2{fill:#3d3d63}</style></defs><g id="图层_2" data-name="图层 2"><g id="Icons"><g id="Stopwatch"><path class="cls-1" d="M0 0h60v60H0z"/><path class="cls-1" d="M0 0h60v60H0z"/><rect class="cls-1" x="24.71" y="5" width="10.56" height="4.32" rx=".96" ry=".96"/><path class="cls-2" d="M30 23.64a1 1 0 001-1v-1.75a1 1 0 00-2 0v1.75a1 1 0 001 1zm-7.34 19.12a1 1 0 10-1.42-1.42L20 42.58A1 1 0 0021.42 44zM19.62 34a1 1 0 00-1-1h-1.75a1 1 0 100 2h1.75a1 1 0 001-1zM30 44.38a1 1 0 00-1 1v1.75a1 1 0 002 0v-1.75a1 1 0 00-1-1zm8.74-3.04a1 1 0 00-1.41 0 1 1 0 000 1.41L38.56 44A1 1 0 0040 44a1 1 0 000-1.41zM38.56 24l-1.23 1.24a1 1 0 000 1.41 1 1 0 001.41 0L40 25.44A1 1 0 0038.56 24z"/><path class="cls-2" d="M49.77 19.52a1 1 0 001.07-.22l.31-.32a4 4 0 10-5.65-5.65l-.32.31a1 1 0 00-.18 1.07l-1.75 1.75a21.94 21.94 0 00-9.82-4.18v-2h.92a2 2 0 002-2V6a2 2 0 00-2-2h-8.68a2 2 0 00-2 2v2.4a2 2 0 002 2h.92v2A22 22 0 1048 21.34zm0-4.78a2 2 0 01.34 2.38l-2.75-2.72a2 2 0 012.38.34zm-3.43 1.45l2 2-1.58 1.58a19.37 19.37 0 00-2-2zM25.71 8.36V6h8.6v2.32zm5.68 2v1.74c-.46 0-.93-.05-1.4-.05s-.93 0-1.4.05v-1.78zM30 54a20 20 0 1120-20 20 20 0 01-20 20z"/><path class="cls-2" d="M30 16.21A17.8 17.8 0 1047.79 34 17.82 17.82 0 0030 16.21zm0 33.59A15.8 15.8 0 1145.79 34 15.8 15.8 0 0130 49.8z"/><path class="cls-2" d="M35.31 34a5.3 5.3 0 00-5.14-5.3L23 23.25A2.68 2.68 0 0019.25 27l5.44 7.17A5.31 5.31 0 0035.31 34zm-14.46-8.2a.67.67 0 01.07-.88.66.66 0 01.86-.07l5.83 4.42a5.34 5.34 0 00-2.35 2.35zm5.82 8.2A3.32 3.32 0 1130 37.33 3.32 3.32 0 0126.67 34zm13.69 0a1 1 0 001 1h1.75a1 1 0 000-2h-1.75a1 1 0 00-1 1z"/></g></g></g></svg>