<svg xmlns="http://www.w3.org/2000/svg" viewBox="0 0 277.927 277.927"><path d="M261.893 154.998H112.24c-8.552 0-16.034-7.483-16.034-16.034 0-8.552 7.483-16.034 16.034-16.034h149.653c8.552 0 16.034 7.483 16.034 16.034 0 8.551-7.483 16.034-16.034 16.034zm0-96.206H16.034C7.483 58.792 0 51.31 0 42.758s7.483-16.034 16.034-16.034h245.858c8.552 0 16.034 7.483 16.034 16.034s-7.482 16.034-16.033 16.034zm0 192.411H16.034C7.483 251.203 0 243.721 0 235.169s7.483-16.034 16.034-16.034h245.858c8.552 0 16.034 7.483 16.034 16.034s-7.482 16.034-16.033 16.034z" fill="#231f20"/></svg>