<svg xmlns="http://www.w3.org/2000/svg" viewBox="0 0 60 60"><defs><style>.cls-7{fill:#3d3d63}</style></defs><g id="图层_2" data-name="图层 2"><g id="Graphics"><g id="Interaction"><path fill="none" d="M0 0h60v60H0z"/><path d="M22.13 40.62a17.81 17.81 0 1115.71 0" fill="#ffc670"/><path d="M24.18 37.54a13.17 13.17 0 1111.61 0 1 1 0 01-.45.1" fill="#ffa742"/><path d="M24.8 34.9a11.78 11.78 0 1110.38 0" fill="#f6716f"/><path d="M30 30.68a13.06 13.06 0 01-11.73-7.31c0 .32-.05.63-.05 1A11.77 11.77 0 0024.8 34.9h10.38a11.79 11.79 0 006.6-10.58c0-.33 0-.64-.05-1A13.06 13.06 0 0130 30.68z" fill="#f0504d"/><path d="M21.51 52.56a1.24 1.24 0 001.08.62h21.7a1.24 1.24 0 001.25-1.25v-7.79A2.59 2.59 0 0043 41.55a2.6 2.6 0 00-2.59 2.59v-3a2.59 2.59 0 10-5.18 0V24.81A2.59 2.59 0 0032 22.3a2.67 2.67 0 00-2 2.63v5a2.54 2.54 0 00-.77-1.84 2.57 2.57 0 00-2-.75 2.66 2.66 0 00-2.4 2.7v18l-1.7-3a2.66 2.66 0 00-3.33-1.18 2.56 2.56 0 00-1.17 3.61z" fill="#ffdead"/><path class="cls-7" d="M42.6 16.48a1 1 0 001-1v-1a16.77 16.77 0 01-1.71 21.76 1 1 0 101.42 1.41 18.78 18.78 0 001.49-24.9h1.55a1 1 0 000-2H42.6a1 1 0 00-1 1v3.75a1 1 0 001 .98zM18.41 36.93v-3.75a1 1 0 00-2 0v1a16.77 16.77 0 011.7-21.77 1 1 0 000-1.41 1 1 0 00-1.42 0 18.79 18.79 0 00-1.49 24.93h-1.54a1 1 0 000 2h3.75a1 1 0 001-1z"/><path class="cls-7" d="M43 40.5a3.54 3.54 0 00-1.59.37 3.6 3.6 0 00-3.59-3.47 3.54 3.54 0 00-1.59.37v-2.26a12.78 12.78 0 10-12.37 0v8.85A3.67 3.67 0 0019.37 43a3.55 3.55 0 00-1.62 5l2.89 5a2.27 2.27 0 001.95 1.13h21.7a2.25 2.25 0 002.25-2.25v-7.79A3.59 3.59 0 0043 40.5zM19.22 24.33a10.78 10.78 0 1117 8.83v-8.72a3.59 3.59 0 10-7.18 0v1.94A3.55 3.55 0 0027.4 26a3.59 3.59 0 00-3.59 3.59v3.55a10.69 10.69 0 01-4.59-8.81zm25.32 27.61a.25.25 0 01-.25.25h-21.7a.23.23 0 01-.21-.13l-2.9-5a1.52 1.52 0 01-.13-1.25 1.55 1.55 0 01.84-.95 1.47 1.47 0 01.58-.12 1.73 1.73 0 011.47.89l1.7 3a1 1 0 001.87-.5V29.6a1.6 1.6 0 013.19 0v15.7a1 1 0 102 0V24.44a1.59 1.59 0 113.18 0V41a1 1 0 002 0 1.59 1.59 0 113.18 0v3.1a1 1 0 002 0 1.59 1.59 0 113.18 0z"/></g></g></g></svg>