<svg xmlns="http://www.w3.org/2000/svg" viewBox="0 0 60 60"><defs><style>.cls-5{fill:#edf4ff}.cls-6{fill:#d8e3f0}.cls-9{fill:#3d3d63}</style></defs><g id="图层_2" data-name="图层 2"><g id="Graphics"><g id="Pie_Chart" data-name="Pie Chart"><path fill="none" d="M0 0h60v60H0z"/><path d="M28.36 31.41L19.71 50a20.47 20.47 0 01-1.59-36.28z" fill="#96ddff"/><path d="M15.2 15.74l13.16 15.67-10.24-17.73a19.94 19.94 0 00-2.92 2.06z" fill="#69baf9"/><path d="M28.36 6v25.41h25.41A25.41 25.41 0 0028.36 6z" fill="#79deb4"/><path class="cls-5" d="M28.36 31.41l-9.55 20.48A22.6 22.6 0 0051 31.41zm0-22.59a22.51 22.51 0 00-11.3 3l11.3 19.56z"/><path class="cls-6" d="M28.36 31.41l-.05.11 21.84 5.85a22.92 22.92 0 00.8-6zm0-22.59a22 22 0 00-3.92.36l3.92 22.23z"/><circle class="cls-5" cx="28.36" cy="31.41" r="7.06"/><path class="cls-6" d="M29.61 24.47a5.84 5.84 0 11-8.19 8.2 7.06 7.06 0 108.19-8.2z"/><path fill="#ffebcc" d="M6.23 31.41h21.66v15.15H6.23z"/><path d="M18.13 43c-3.42 1.27-8.13 1.14-11.9.72v2.8h21.66V31.41h-2.06s-1.08 9.17-7.7 11.59z" fill="#ffdead"/><path class="cls-9" d="M28.36 5a1 1 0 00-1 1v1.86A23.43 23.43 0 0016.56 11a1 1 0 00-.36 1.36l.57 1a21.54 21.54 0 00-9.85 17.05h-.69a1 1 0 00-1 1v15.15a1 1 0 001 1h8a21.88 21.88 0 004.17 2.86l-.49 1a1 1 0 00.48 1.33 23.61 23.61 0 0033.53-20.34h1.85a1 1 0 001-1A26.44 26.44 0 0028.36 5zm-.47 25.41h-5.5a6.06 6.06 0 116.5 7v-6a1 1 0 00-1-1zm-.53-20.56v13.57a7.68 7.68 0 00-2.14.57l-6.78-11.75a21.44 21.44 0 018.92-2.39zm-9.59 5.23L23.5 25a8 8 0 00-3.13 5.41H8.92a19.53 19.53 0 018.85-15.33zM7.23 32.41h19.66v13.15H7.23zm10.25 15.15h2.24l-.48 1a19.45 19.45 0 01-1.76-1zM28.36 53a21.42 21.42 0 01-8.21-1.61l1.78-3.83h6a1 1 0 001-1v-7.12a8.06 8.06 0 007.46-7h13.53A21.61 21.61 0 0128.36 53zM51 30.41H36.35a8.09 8.09 0 00-7-7V7a24.45 24.45 0 0123.4 23.41z"/><path class="cls-9" d="M10.14 37.92h6.2a1 1 0 100-2h-6.2a1 1 0 000 2zm11.15 2.13H10.14a1 1 0 000 2h11.15a1 1 0 000-2z"/></g></g></g></svg>