<svg xmlns="http://www.w3.org/2000/svg" viewBox="0 0 60 60"><defs><style>.cls-2{fill:#3d3d63}</style></defs><g id="图层_2" data-name="图层 2"><g id="Icons"><g id="Transport"><path fill="none" d="M0 0h60v60H0z"/><path class="cls-2" d="M23.11 41.85h-9a1 1 0 100 2h9a1 1 0 100-2zm-9.03-1.74h5.12a1 1 0 100-2h-5.12a1 1 0 100 2z"/><path class="cls-2" d="M54.85 33.49a1 1 0 00-1.05-.13l-4.36 2v-5.73a3.06 3.06 0 00-2.4-3l.61-6.94a1 1 0 00-.23-.73 1 1 0 00-.68-.35l-2-.18-.38-7.22a1 1 0 00-1.05-.94L9 12.09a1 1 0 00-1 1.05l.28 5.26a1 1 0 001.05.94 1 1 0 00.95-1.05L10.06 14l32.38-1.7.31 6-30.29-2.67a1 1 0 00-1.09.91L11 20.42h-.5a3.06 3.06 0 00-3.06 3v22.89a3.06 3.06 0 003.06 3.06h30.55v2a1 1 0 001 1 1 1 0 00.56-.17l4.63-3.08 3.34 1.23a1 1 0 00.83-.06 1 1 0 00.49-.66l3.3-15.16a1 1 0 00-.35-.98zM41.81 45l-4.75-1.75 12.33-5.67zM13.28 17.71l32.29 2.82-.53 6h-2.18l.29-3.35a1 1 0 00-.91-1.08l-9.54-.84a1 1 0 00-1.09.91l-.27 3.07-4.72-3.76a5.1 5.1 0 00-3.18-1.11H13zm27.57 8.87h-6.8a3.1 3.1 0 01-.8-.12l.27-3.07 7.55.66zM10.5 47.37a1.07 1.07 0 01-1.06-1.06V23.47a1.06 1.06 0 011.06-1h12.94a3.14 3.14 0 011.93.67l5.5 4.38a5.16 5.16 0 003.18 1.11h12.34a1 1 0 011 1.05v6.66L34 42.46a1 1 0 00-.59.95 1 1 0 00.66.89l6.95 2.56v.51zm32.55 2.15V47.6l1.86.68zm7.14-1.43l-6.3-2.32 8.65-8.45z"/></g></g></g></svg>