<svg xmlns="http://www.w3.org/2000/svg" viewBox="0 0 60 60"><defs><style>.cls-2{fill:#3d3d63}</style></defs><g id="图层_2" data-name="图层 2"><g id="Icons"><g id="Lady"><path fill="none" d="M0 0h60v60H0z"/><path class="cls-2" d="M51.41 53.33h-3.24v-.7a9 9 0 00-4.69-7.88 1 1 0 00-.58-.9 9 9 0 00-3.85-.85H38a1 1 0 00-.71.3A4.8 4.8 0 0135 41.36a12.48 12.48 0 002.07-1.27h5.59a3.25 3.25 0 003.24-3.24V21.27a16.26 16.26 0 00-.4-3.56c.12-.09.24-.18.35-.28a3.17 3.17 0 00-.5-4.89l-1.49-1a1 1 0 00-.24-1L41 7.84a1 1 0 00-1-.24l-1-1.5a3.16 3.16 0 00-4.88-.51 2.23 2.23 0 00-.19.24 15.89 15.89 0 00-19.86 15.44v15.58a3.25 3.25 0 003.24 3.24h5.59a11.69 11.69 0 002.26 1.36 4.69 4.69 0 01-2.43 1.91A1 1 0 0022 43h-1a9 9 0 00-3.85.86 1 1 0 00-.58.91v.13a8.52 8.52 0 00-4.69 7.58v.86H8.59a1 1 0 000 2h42.82a1 1 0 000-2zm-34.89 0h-2.8v-.86a6.6 6.6 0 012.8-5.38zm27.76-39.11a1.11 1.11 0 01.52.85 1.2 1.2 0 01-1.27 1.28 1.19 1.19 0 01-.86-.52l-1.14-1.74 1-1zm-4-4.25l1.29 1.29-1.87 1.83-1.29-1.29zm-3.79-3.3a1.21 1.21 0 01.86.52l1.14 1.74-1 1L35.7 8.8a1.11 1.11 0 01-.52-.8 1.19 1.19 0 011.27-1.33zM17.31 38.09a1.24 1.24 0 01-1.24-1.24V21.27A14 14 0 0130 7.33a14.2 14.2 0 013.19.38 3.23 3.23 0 000 .44 3.13 3.13 0 001.41 2.32l1.47 1a1 1 0 00.22 1.06L39 15.21a1 1 0 001 .23l1 1.48a3.12 3.12 0 002.32 1.41 1.5 1.5 0 00.3 0 13.71 13.71 0 01.31 2.94v15.58a1.24 1.24 0 01-1.24 1.24h-3.55a11.64 11.64 0 002.53-7.24V18.34a1 1 0 00-.51-.86 1 1 0 00-1 0A6.68 6.68 0 0131 15a1 1 0 00-1.87.52 6.69 6.69 0 01-9.39 6.12 1 1 0 00-1.41.91v8.27a11.64 11.64 0 002.53 7.24zm3-7.24V24a8.83 8.83 0 002.11.26A8.68 8.68 0 0030.78 18a8.72 8.72 0 006 2.42 8.49 8.49 0 002.87-.49v11a9.67 9.67 0 01-19.34 0zm6.75 11.29a11.68 11.68 0 002.92.38 11.24 11.24 0 003.14-.45 6.78 6.78 0 003.76 3.2c-.65 3.11-3.67 4.52-6.67 4.52h-.46c-3 0-6-1.39-6.65-4.45a6.74 6.74 0 003.98-3.2zm14.4 11.19h-23v-7.9A7 7 0 0121 45c.49 4 3.94 6.8 8.74 6.8h.46C35 51.79 38.48 49 39 45h.08a7 7 0 012.43.44zm4.69 0h-2.67v-6.2a7 7 0 012.69 5.5z"/><path class="cls-2" d="M34.44 34.37a1 1 0 00-1.84-.81 2.83 2.83 0 01-5.2 0 1 1 0 00-1.84.81 4.85 4.85 0 008.88 0zm-7.88-7.72v-1.16a1 1 0 00-2 0v1.16a1 1 0 002 0zm7.88 1a1 1 0 001-1v-1.16a1 1 0 10-2 0v1.16a1 1 0 001 1z"/></g></g></g></svg>