<svg xmlns="http://www.w3.org/2000/svg" viewBox="0 0 60 60"><defs><style>.cls-2{fill:#3d3d63}</style></defs><g id="图层_2" data-name="图层 2"><g id="Icons"><g id="Pie_Chart" data-name="Pie Chart"><path fill="none" d="M0 0h60v60H0z"/><path class="cls-2" d="M28.36 5a1 1 0 00-1 1v1.86A23.43 23.43 0 0016.56 11a1 1 0 00-.36 1.36l.57 1a21.54 21.54 0 00-9.85 17.05h-.69a1 1 0 00-1 1v15.15a1 1 0 001 1h8a21.88 21.88 0 004.17 2.86l-.49 1a1 1 0 00.48 1.33 23.61 23.61 0 0033.53-20.34h1.85a1 1 0 001-1A26.44 26.44 0 0028.36 5zm-.47 25.41h-5.5a6.06 6.06 0 116.5 7v-6a1 1 0 00-1-1zm-.53-20.56v13.57a7.68 7.68 0 00-2.14.57l-6.78-11.75a21.44 21.44 0 018.92-2.39zm-9.59 5.23L23.5 25a8 8 0 00-3.13 5.41H8.92a19.53 19.53 0 018.85-15.33zM7.23 32.41h19.66v13.15H7.23zm10.25 15.15h2.24l-.48 1a19.45 19.45 0 01-1.76-1zM28.36 53a21.42 21.42 0 01-8.21-1.61l1.78-3.83h6a1 1 0 001-1v-7.12a8.06 8.06 0 007.46-7h13.53A21.61 21.61 0 0128.36 53zM51 30.41H36.35a8.09 8.09 0 00-7-7V7a24.45 24.45 0 0123.4 23.41z"/><path class="cls-2" d="M10.14 37.92h6.2a1 1 0 100-2h-6.2a1 1 0 000 2zm11.15 2.13H10.14a1 1 0 000 2h11.15a1 1 0 000-2z"/></g></g></g></svg>